<?xml version="1.0"?><svg width="1023.3063" height="1023.3063" xmlns="http://www.w3.org/2000/svg">

 <metadata id="metadata7">image/svg+xml</metadata>
 <g>
  <title>Layer 1</title>
  <g display="inline" id="layer4">
   <rect fill="#ffff00" stroke="#000000" stroke-width="10.629921" stroke-linecap="round" stroke-linejoin="round" stroke-miterlimit="4" id="rect2200" width="737.34528" height="737.34528" x="354.914195" y="-368.67263" ry="36.398502" transform="matrix(0.707107 0.707107 -0.707107 0.707107 0 0)"/>
   <g display="inline" id="g4066">
    <g stroke="#ffff00" stroke-width="0.858269" display="inline" id="g3735" transform="matrix(1.1278 0 0 1.2037 145.497 -43.2145)">
     <path fill="#000000" stroke="#ffff00" stroke-width="0.858383px" id="path2844" d="m451.002106,301.983521l5.53064,21.518188l-60.049744,15.044403c-4.040833,1.01236 -9.522217,-1.071747 -12.466736,-3.289764c-0.904236,-0.681091 -2.847351,-1.345215 -6.122742,-0.524628l-10.918152,2.045502l-1.10614,-4.9935c6.800812,-1.921478 8.60379,-1.564392 11.148132,-2.965302c2.183594,-0.547058 3.694824,-1.665833 4.56543,-2.80011c2.18042,-2.840851 4.676453,-7.814575 9.369507,-8.990387l60.049805,-15.044403z"/>
     <g stroke="#ffff00" stroke-width="0.858269" display="inline" id="g3707">
      <path fill="#211414" stroke="#ffff00" stroke-width="1.716538" stroke-linecap="round" stroke-linejoin="round" stroke-miterlimit="4" d="m430.245575,337.226044c2.121948,0.353668 2.00531,-28.333405 0.348267,-30.211212c-5.206543,-5.497589 -18.855957,-0.356964 -23.089417,5.203247l4.352722,24.77124l-5.893066,1.777069l6.274109,2.792114l18.007385,-4.332458z" id="path2927"/>
     </g>
    </g>
    <path fill="#000000" stroke="#000000" stroke-width="0.690023px" d="m449.105469,378.993835l360.355225,218.656738c0.96936,5.310913 -2.357666,5.929626 -5.746826,9.724121l-360.355194,-218.656677c-13.472687,24.474243 -14.032959,27.96347 -27.156952,53.707611c-54.365692,-39.456604 -109.170349,-66.067017 -74.689392,-124.412018c34.481049,-58.345001 134.633911,10.328003 134.633911,10.328003c0,0 -13.457367,27.667847 -27.040771,50.652252l0,-0.000031z" id="path3740"/>
    <path fill="#000000" stroke="#ffff00" stroke-width="1" stroke-miterlimit="4" d="m485.406372,387.561584c-32.019562,6.957306 -52.353302,28.168671 -64.362152,59.534454c-17.052948,33.311523 -36.730011,75.831146 -22.542023,130.361237l10.198334,29.186646c19.571136,49.854675 54.720398,38.528198 88.505585,6.461609l57.925964,-107.619965l-36.471924,81.287445l13.94519,65.258911l65.434875,-20.608093c0,0 -0.844299,-107.050415 2.145386,-111.054688c11.088562,-14.851959 -23.763123,-74.707306 -64.362122,-36.636536l-53.635162,61.82428l47.198883,-87.011932l81.525391,25.187653c0,0 15.497253,-0.955444 22.728394,-18.222107c13.841003,-33.049591 3.956909,-105.010559 3.956909,-105.010559c-11.902771,3.453735 -15.39563,4.64444 -29.663635,7.714569c-4.206177,0.90506 0.833008,65.142792 -6.675964,63.997925c-7.508911,-1.144897 -81.525391,-25.187653 -81.525391,-25.187653c1.887451,-2.045532 0.085449,-25.259064 7.1073,-26.423676c13.808228,-2.290192 18.585571,4.072937 24.496094,-8.556c1.687012,-3.604492 0.048096,-10.681244 0.582764,-16.399994c0.213867,-2.288391 5.839539,-2.41037 6.702271,-4.454285c-5.466309,-13.559509 0.413147,-16.729645 -3.916504,-25.841919c-2.087646,-4.323944 -0.680542,-6.386353 -3.692505,-9.861908c-0.330078,-1.944031 18.185547,-4.35202 19.777954,-6.508453c0.208984,-0.28302 -0.186584,-2.19281 -2.990234,-2.381165c-4.940796,-0.33197 -14.20575,1.175476 -17.390869,1.3974c-3.951172,0.27533 -3.426392,-6.328308 -11.669067,-18.194916c-3.303711,-4.522614 -19.080505,-5.413879 -35.473297,-2.011932c-6.767548,1.404449 -20.733856,-0.875031 -26.316132,5.94574c-2.161011,2.640472 -4.125427,19.376099 -1.876892,24.916595c5.986633,24.671448 -1.696564,42.762115 7.681702,52.900726c3.202179,3.461731 0.598602,10.907837 2.65094,16.01059l-0.000061,0z" id="path2888"/>
    <path fill="#000000" stroke="#ffbb00" stroke-width="1" stroke-miterlimit="4" d="m551.94989,648.856262c0,0 23.32428,-8.500427 29.961365,-9.714722c2.393494,-0.437927 3.602966,31.977661 3.602966,31.977661c8.895325,5.176514 22.303711,2.399841 34.977844,-0.802063c19.89801,-5.026917 37.681702,7.615234 24.565613,32.375c-19.468567,0.062561 -52.211121,-0.41449 -71.679749,-5.666992l-0.758545,6.476501l-32.236816,-2.833435c1.213135,-9.026489 -1.71582,-16.947815 6.826538,-27.929871l4.740784,-23.88208z" id="path3662"/>
    <path fill="#000000" stroke="#ffff00" stroke-width="1" stroke-miterlimit="4" d="m736.431152,626.837524l18.653564,26.023621l30.2005,-2.849426c22.680237,-21.876526 37.656067,-19.908508 49.268921,4.325989c0.108704,3.428162 -52.221497,31.238159 -54.051453,27.047729c-1.321167,-3.025391 4.603821,8.427917 4.603821,8.427917l-36.201599,14.348755c-9.467896,-10.767273 -19.579468,-20.98175 -22.235718,-37.595825l-17.631042,-28.178406l27.025208,-13.209167l0.367798,1.658813z" id="path3722"/>
    <path fill="#000000" stroke="#ffff00" stroke-width="1" stroke-miterlimit="4" d="m600.756287,544.235291l0.011292,54.665344l60.409912,-20.256958c21.857117,25.491516 22.426147,47.027466 38.509094,66.356262l41.472717,-25.031799l-53.411804,-80.211548c-4.305603,-6.069458 -8.611145,-5.364868 -12.916748,-7.732178l-74.074219,12.210876l-0.000244,0z" id="path3718"/>
    <path fill="#000000" stroke="#000000" stroke-width="1.049252px" d="m507.500183,706.689026c-9.592438,-16.326782 -15.563141,-25.952209 -23.592224,-42.599792c-3.995117,-8.283569 -5.535889,-21.869141 -12.993713,-28.370972c-20.065247,-10.22998 -41.022736,-41.025208 -72.039246,-51.255188c-4.88681,-12.584839 -15.279297,-20.61499 -19.215485,-27.470947c-17.868195,-31.122742 -52.496216,16.377441 -52.496216,16.377441c-6.629852,-17.333923 -44.136963,9.436646 -54.280396,33.834778c-27.74617,15.032288 -30.076736,37.42334 -45.9431,100.723877l280.560379,-1.239197z" id="path3716"/>
   </g>
  </g>
  <g id="layer1"/>
  <text transform="matrix(3.97694 0 0 3.11608 -1112.81 -324.228)" xml:space="preserve" text-anchor="middle" font-family="Arial" font-size="24" id="svg_1" y="188.693726" x="408.693726" stroke-width="0" stroke="#000000" fill="#000000">WORK IN</text>
  <text transform="matrix(3.47163 0 0 3.16938 -523.782 -1569.55)" xml:space="preserve" text-anchor="middle" font-family="Arial" font-size="24" id="svg_2" y="745.693726" x="298.693726" stroke-linecap="null" stroke-linejoin="null" stroke-dasharray="null" stroke-width="0" stroke="#000000" fill="#000000">PROGRESS</text>
 </g>
</svg>